<?xml version="1.0" encoding="utf-8"?>
<!-- Generator: Adobe Illustrator 25.4.1, SVG Export Plug-In . SVG Version: 6.00 Build 0)  -->
<svg version="1.1" id="Layer_1" xmlns="http://www.w3.org/2000/svg" xmlns:xlink="http://www.w3.org/1999/xlink" x="0px" y="0px"
	 viewBox="0 0 500 500" style="enable-background:new 0 0 500 500;" xml:space="preserve">
<style type="text/css">
	.st0{clip-path:url(#SVGID_00000076597121040144972270000007344256574200714902_);}
	.st1{fill:none;stroke:#FFFFFF;stroke-width:1.51;stroke-miterlimit:10;}
</style>
<g>
	<defs>
		<rect id="SVGID_1_" x="161.59" y="224.04" width="176.82" height="51.92"/>
	</defs>
	<clipPath id="SVGID_00000143599506237088619710000001594296601316986019_">
		<use xlink:href="#SVGID_1_"  style="overflow:visible;"/>
	</clipPath>
	<g style="clip-path:url(#SVGID_00000143599506237088619710000001594296601316986019_);">
		<path class="st1" d="M212.78,275.2c13.92,0,25.2-11.28,25.2-25.2s-11.28-25.2-25.2-25.2s-25.2,11.28-25.2,25.2
			S198.86,275.2,212.78,275.2z"/>
		<path class="st1" d="M258.25,259.29c5.24,0,9.49-4.25,9.49-9.49s-4.25-9.49-9.49-9.49c-5.24,0-9.49,4.25-9.49,9.49
			S253.01,259.29,258.25,259.29z"/>
		<path class="st1" d="M291.81,264.57c7.68,0,13.9-6.22,13.9-13.9c0-7.68-6.22-13.9-13.9-13.9s-13.9,6.22-13.9,13.9
			C277.91,258.35,284.13,264.57,291.81,264.57z"/>
		<path class="st1" d="M161.59,250h176.82"/>
	</g>
</g>
</svg>
